# xmcd
#
# Track frame offsets:
#	150
#	13652
#	30347
#	45767
#	60220
#	74580
#	91302
#	106050
#	120752
#	136115
#	149052
#	164985
#	176215
#	191347
#	203202
#	215637
#	228760
#	244872
#	258982
#	273517
#
# Disc length: 3819 seconds
#
# Revision: 0
# Processed by: cddbd v1.4PL0 Copyright (c) Steve Scherf et al.
# Submitted via: EasyCDDAExtractor 4.6.9.1
#
DISCID=160ee914
DTITLE=The Full Moon Guitars - Eagles Country
DYEAR=1900
DGENRE=Country
TTITLE0=Peaceful Easy Feeling
TTITLE1=Hotel California
TTITLE2=One of These Nights
TTITLE3=Already Gone
TTITLE4=Witchy Woman
TTITLE5=Best of My Love
TTITLE6=New Kid In Town
TTITLE7=The Long Run
TTITLE8=Heartache Tonight
TTITLE9=Life In The Fast Lane
TTITLE10=I Can't Tell You Why
TTITLE11=Doolin' Dalton
TTITLE12=Try And Love Again
TTITLE13=The Last Resort
TTITLE14=James Dean
TTITLE15=Desperado
TTITLE16=Take It Easy
TTITLE17=Take It To The Limit
TTITLE18=Lyin' Eyes
TTITLE19=Tequila Sunrise
EXTD=
EXTT0=
EXTT1=
EXTT2=
EXTT3=
EXTT4=
EXTT5=
EXTT6=
EXTT7=
EXTT8=
EXTT9=
EXTT10=
EXTT11=
EXTT12=
EXTT13=
EXTT14=
EXTT15=
EXTT16=
EXTT17=
EXTT18=
EXTT19=
PLAYORDER=
